<?xml version="1.0" encoding="UTF-8" standalone="no"?>
<!-- Created with Inkscape (http://www.inkscape.org/) -->

<svg
   xmlns:dc="http://purl.org/dc/elements/1.1/"
   xmlns:cc="http://creativecommons.org/ns#"
   xmlns:rdf="http://www.w3.org/1999/02/22-rdf-syntax-ns#"
   xmlns:svg="http://www.w3.org/2000/svg"
   xmlns="http://www.w3.org/2000/svg"
   xmlns:sodipodi="http://sodipodi.sourceforge.net/DTD/sodipodi-0.dtd"
   xmlns:inkscape="http://www.inkscape.org/namespaces/inkscape"
   width="100mm"
   height="100mm"
   viewBox="0 0 354.33071 354.33071"
   id="svg2"
   version="1.1"
   inkscape:version="0.91 r13725"
   sodipodi:docname="icon.svg"
   inkscape:export-filename="/home/bitskeptic/archive/dictionary.addon/chrome/dictlookup/icons/dictlookup-48.png"
   inkscape:export-xdpi="12.191999"
   inkscape:export-ydpi="12.191999">
  <defs
     id="defs4">
    <filter
       style="color-interpolation-filters:sRGB;"
       inkscape:label="Drop Shadow"
       id="filter6873">
      <feFlood
         flood-opacity="0.498039"
         flood-color="rgb(0,0,0)"
         result="flood"
         id="feFlood6875" />
      <feComposite
         in="flood"
         in2="SourceGraphic"
         operator="in"
         result="composite1"
         id="feComposite6877" />
      <feGaussianBlur
         in="composite1"
         stdDeviation="1.1"
         result="blur"
         id="feGaussianBlur6879" />
      <feOffset
         dx="0"
         dy="2.5"
         result="offset"
         id="feOffset6881" />
      <feComposite
         in="SourceGraphic"
         in2="offset"
         operator="over"
         result="fbSourceGraphic"
         id="feComposite6883" />
      <feColorMatrix
         result="fbSourceGraphicAlpha"
         in="fbSourceGraphic"
         values="0 0 0 -1 0 0 0 0 -1 0 0 0 0 -1 0 0 0 0 1 0"
         id="feColorMatrix6885" />
      <feFlood
         id="feFlood6887"
         flood-opacity="0.498039"
         flood-color="rgb(0,0,0)"
         result="flood"
         in="fbSourceGraphic" />
      <feComposite
         id="feComposite6889"
         in2="fbSourceGraphic"
         in="flood"
         operator="in"
         result="composite1" />
      <feGaussianBlur
         id="feGaussianBlur6891"
         in="composite1"
         stdDeviation="1.1"
         result="blur" />
      <feOffset
         id="feOffset6893"
         dx="0"
         dy="2.5"
         result="offset" />
      <feComposite
         id="feComposite6895"
         in2="offset"
         in="fbSourceGraphic"
         operator="over"
         result="composite2" />
    </filter>
    <filter
       style="color-interpolation-filters:sRGB;"
       inkscape:label="Drop Shadow"
       id="filter7261">
      <feFlood
         flood-opacity="0.498039"
         flood-color="rgb(0,0,0)"
         result="flood"
         id="feFlood7263" />
      <feComposite
         in="flood"
         in2="SourceGraphic"
         operator="in"
         result="composite1"
         id="feComposite7265" />
      <feGaussianBlur
         in="composite1"
         stdDeviation="4"
         result="blur"
         id="feGaussianBlur7267" />
      <feOffset
         dx="0"
         dy="5"
         result="offset"
         id="feOffset7269" />
      <feComposite
         in="SourceGraphic"
         in2="offset"
         operator="over"
         result="composite2"
         id="feComposite7271" />
    </filter>
    <filter
       style="color-interpolation-filters:sRGB;"
       inkscape:label="Drop Shadow"
       id="filter7600">
      <feFlood
         flood-opacity="0.498039"
         flood-color="rgb(0,0,0)"
         result="flood"
         id="feFlood7602" />
      <feComposite
         in="flood"
         in2="SourceGraphic"
         operator="in"
         result="composite1"
         id="feComposite7604" />
      <feGaussianBlur
         in="composite1"
         stdDeviation="4"
         result="blur"
         id="feGaussianBlur7606" />
      <feOffset
         dx="0"
         dy="5"
         result="offset"
         id="feOffset7608" />
      <feComposite
         in="SourceGraphic"
         in2="offset"
         operator="over"
         result="composite2"
         id="feComposite7610" />
    </filter>
    <filter
       style="color-interpolation-filters:sRGB;"
       inkscape:label="Drop Shadow"
       id="filter7823">
      <feFlood
         flood-opacity="0.498039"
         flood-color="rgb(0,0,0)"
         result="flood"
         id="feFlood7825" />
      <feComposite
         in="flood"
         in2="SourceGraphic"
         operator="out"
         result="composite1"
         id="feComposite7827" />
      <feGaussianBlur
         in="composite1"
         stdDeviation="6"
         result="blur"
         id="feGaussianBlur7829" />
      <feOffset
         dx="0"
         dy="3"
         result="offset"
         id="feOffset7831" />
      <feComposite
         in="offset"
         in2="SourceGraphic"
         operator="atop"
         result="composite2"
         id="feComposite7833" />
    </filter>
    <filter
       style="color-interpolation-filters:sRGB;"
       inkscape:label="Drop Shadow"
       id="filter10252">
      <feFlood
         flood-opacity="0.498039"
         flood-color="rgb(0,0,0)"
         result="flood"
         id="feFlood10254" />
      <feComposite
         in="flood"
         in2="SourceGraphic"
         operator="in"
         result="composite1"
         id="feComposite10256" />
      <feGaussianBlur
         in="composite1"
         stdDeviation="4"
         result="blur"
         id="feGaussianBlur10258" />
      <feOffset
         dx="0"
         dy="3"
         result="offset"
         id="feOffset10260" />
      <feComposite
         in="SourceGraphic"
         in2="offset"
         operator="over"
         result="composite2"
         id="feComposite10262" />
    </filter>
    <filter
       style="color-interpolation-filters:sRGB;"
       inkscape:label="Drop Shadow"
       id="filter5338">
      <feFlood
         flood-opacity="0.498039"
         flood-color="rgb(0,0,0)"
         result="flood"
         id="feFlood5340" />
      <feComposite
         in="flood"
         in2="SourceGraphic"
         operator="in"
         result="composite1"
         id="feComposite5342" />
      <feGaussianBlur
         in="composite1"
         stdDeviation="4"
         result="blur"
         id="feGaussianBlur5344" />
      <feOffset
         dx="0"
         dy="3"
         result="offset"
         id="feOffset5346" />
      <feComposite
         in="SourceGraphic"
         in2="offset"
         operator="over"
         result="composite2"
         id="feComposite5348" />
    </filter>
  </defs>
  <sodipodi:namedview
     id="base"
     pagecolor="#ffffff"
     bordercolor="#666666"
     borderopacity="1.0"
     inkscape:pageopacity="0.0"
     inkscape:pageshadow="2"
     inkscape:zoom="0.98994949"
     inkscape:cx="-46.874033"
     inkscape:cy="260.55914"
     inkscape:document-units="px"
     inkscape:current-layer="layer5"
     showgrid="false"
     inkscape:window-width="1680"
     inkscape:window-height="990"
     inkscape:window-x="0"
     inkscape:window-y="0"
     inkscape:window-maximized="1"
     inkscape:snap-global="false" />
  <metadata
     id="metadata7">
    <rdf:RDF>
      <cc:Work
         rdf:about="">
        <dc:format>image/svg+xml</dc:format>
        <dc:type
           rdf:resource="http://purl.org/dc/dcmitype/StillImage" />
        <dc:title />
      </cc:Work>
    </rdf:RDF>
  </metadata>
  <g
     inkscape:label="Layer 1"
     inkscape:groupmode="layer"
     id="layer1"
     transform="translate(0,-698.0315)" />
  <g
     inkscape:groupmode="layer"
     id="layer4"
     inkscape:label="Layer 4"
     style="display:inline" />
  <g
     inkscape:groupmode="layer"
     id="layer2"
     inkscape:label="Layer 2"
     style="display:inline" />
  <g
     inkscape:groupmode="layer"
     id="layer5"
     inkscape:label="Layer 5"
     style="display:inline">
    <g
       id="g5331"
       transform="translate(11.279558,2.9904433)"
       style="filter:url(#filter5338)">
      <path
         sodipodi:nodetypes="cccccccccccccccccczzzzzccccccccccccccccc"
         inkscape:connector-curvature="0"
         id="path4227"
         d="m 178.65394,776.39369 c -3.82523,-0.22114 -6.95986,2.85322 -9.2852,5.19521 -4.01867,-4.88658 -12.68471,-5.66548 -16.56541,-0.19814 -5.35329,-6.05106 -16.94198,-4.79389 -20.03008,2.92299 -10.02603,-2.13858 -20.4515,-0.88014 -30.48595,-0.8071 -3.993537,1.65661 -0.57588,6.81999 0.27085,8.67989 -7.718147,-0.40849 -17.980541,4.69283 -16.39635,13.76421 -0.04521,1.90174 2.660445,4.6191 -0.888893,4.41538 -7.764816,1.63903 -18.372572,5.06105 -18.872164,14.53313 -0.980089,2.24319 -3.892222,3.37559 -4.671332,6.04519 -2.674088,3.57551 -6.468713,6.30792 -7.88042,10.84378 -1.51854,4.51952 -4.580591,8.07647 -7.978225,11.19205 -2.217249,4.15457 -1.634851,9.17028 -4.281967,13.17959 -2.395048,7.55239 -4.725919,15.45582 -6.899181,22.84512 1.40251,2.00991 0.426074,3.19226 -1.339702,4.4681 -3.630198,5.19645 -9.441158,8.47169 -15.492915,9.54878 -10.3354069,6.87391 -4.874261,25.04019 6.969358,26.51955 27.225155,9.83746 56.588843,9.83304 85.151961,10.59583 0.41525,7.707 -0.22758,24.1385 1.94829,26.89309 2.17587,2.75459 12.5986,-6.07565 16.54033,-5.89921 3.94173,0.17645 14.50487,8.75389 17.134,6.53199 2.62913,-2.22191 1.96867,-28.73093 7.93496,-30.61246 5.96628,-1.88152 8.95704,-6.0363 18.72492,-2.16133 9.76787,3.87497 27.15316,5.34082 40.96543,4.85892 34.12746,0.57407 69.50482,-0.56877 101.40471,-13.906 8.60808,-7.19367 4.7992,-22.90907 -5.75509,-26.03057 -3.62243,-3.39779 -6.26694,-7.91411 -5.77508,-12.88804 -1.08699,-4.16899 -5.14525,-7.15704 -4.18633,-11.81556 -0.19264,-6.25636 -3.50005,-11.86045 -5.84235,-17.29796 -0.43131,-6.78683 -7.10835,-10.74641 -10.51765,-15.51474 1.04318,-5.90154 -4.6705,-9.72588 -7.50196,-14.08049 -2.1311,-1.54285 -3.96504,-2.81053 -3.73917,-5.70055 -1.85431,-7.4307 -9.94115,-9.59776 -16.2598,-11.61092 -2.59326,-0.4708 -3.82841,-1.25984 -2.34698,-3.63842 2.03755,-6.78096 -2.96846,-14.06627 -10.0214,-14.62765 -3.28731,-1.0701 -8.13823,0.76756 -10.53584,-1.66509 -2.12367,-7.5218 -11.06663,-9.8962 -17.93237,-8.37632 -2.69409,0.0436 -5.56351,1.30503 -8.01276,1.33062 -3.05213,-7.39722 -13.6754,-9.06168 -19.59747,-4.16089 -2.02727,-2.15707 -4.96934,-3.50701 -7.95277,-3.37198 z"
         style="display:inline;fill:#501616;fill-opacity:1"
         transform="translate(0,-698.0315)" />
      <path
         sodipodi:nodetypes="scscccsccccsccsscscccccsssccsccsccccscscscccscsscsscsccsscssccsscscsssssssscscssscscsscscsssccccsscssccsscccccccccccccccccccccccccccscccscsccscccccccccsccsccc"
         inkscape:connector-curvature="0"
         id="path4303-2-6"
         d="m 121.0426,244.02801 c -3e-5,-4.09994 0.37056,-7.8625 0.33721,-8.3742 -0.0334,-0.5118 -0.10953,-1.7191 -0.16923,-2.68294 -0.10619,-1.71364 -0.31685,-1.76359 -9.50635,-2.25269 -45.831457,-0.52291 -59.084682,-1.74254 -85.257683,-10.52885 -2.866821,-1.36029 -3.482625,-2.55029 -1.369123,-2.64571 1.037614,-0.0467 1.075477,-0.14516 0.186096,-0.48374 -2.964037,-1.12842 -2.41682,-3.17938 0.848255,-3.17938 8.230296,1.47035 20.311945,-19.44901 24.860427,-20.09819 18.749959,-5.06987 11.96561,-7.23606 57.807778,-10.81411 -19.568134,-0.71626 -40.613766,2.56541 -59.510326,6.26555 -1.768349,0.35025 -3.163589,0.3425 -3.163589,-0.018 0,-0.3545 0.482676,-0.64441 1.072625,-0.64441 2.176996,-5.86092 4.959789,-20.03919 7.823183,-22.67027 1.837728,-1.66309 6.21169,-1.34306 25.345511,1.85476 20.684966,3.45702 36.121386,7.56676 46.736256,12.44306 1.34518,0.61799 14.43752,7.77668 14.62394,7.59021 0.53134,-0.53116 -25.46512,-13.82489 -30.84075,-15.51365 -10.62229,-3.33698 -40.959787,-9.49418 -53.220524,-10.80138 -2.506919,-0.26732 -3.315922,-1.18608 -1.056946,-1.2005 6.189192,-3.57359 6.033305,-14.69406 11.682525,-17.17303 1.312554,-0.50152 4.170506,0.34608 12.654399,3.75292 20.492506,8.63164 42.785576,16.33795 58.816846,31.48271 0.67629,0.71644 1.48134,1.30265 1.78896,1.30265 0.30767,0 2.01472,1.42361 3.79349,3.16362 1.77875,1.73994 4.21609,4.00095 5.41631,5.02448 l 2.18222,1.86107 -1.86098,-2.2011 c -1.0235,-1.21057 -2.53087,-2.76266 -3.34967,-3.44911 -0.81882,-0.68634 -3.24735,-3.00981 -5.39675,-5.16295 -44.871309,-38.15322 -59.68712,-30.97777 -70.453942,-41.78802 0.211386,-0.34203 0.734836,-0.62186 1.163235,-0.62186 2.057439,0 13.355831,-3.93503 12.797666,-4.45724 -0.350787,-0.32819 -2.396421,-1.5045 -4.545816,-2.61404 -2.149382,-1.10943 -3.900663,-2.23334 -3.891728,-2.49753 0.02466,-0.72698 20.181412,-6.89234 22.315046,-6.82557 1.023509,0.0317 5.202689,1.38316 9.287029,3.00244 l 7.42605,2.9442 -7.78278,-7.75632 c -4.28052,-4.26591 -7.90137,-8.11211 -8.04637,-8.54701 -0.14502,-0.43491 -0.657564,-0.7908 -1.13909,-0.7908 -0.481536,0 -1.293834,-0.66992 -1.805227,-1.48874 -0.824946,-1.32101 -0.74029,-1.49523 0.751439,-1.54572 0.924643,-0.0307 2.183588,-0.1518 2.797718,-0.26774 0.61411,-0.11582 4.34782,-0.44285 8.29707,-0.72666 l 7.1805,-0.51594 4.35733,3.48645 c 2.39654,1.91761 6.15152,5.2012 8.34439,7.29696 l 3.98713,3.81051 -5.47589,-7.90063 c -3.01167,-4.34534 -6.58053,-9.45362 -7.9308,-11.351764 l -2.45499,-3.451133 2.53189,0 c 1.39255,0 4.60309,0.216444 7.13452,0.4811 l 4.60261,0.481047 4.48323,5.57294 c 9.55318,11.87523 16.57943,23.89374 23.02609,39.38638 2.01176,4.83459 3.66732,8.51591 3.67898,8.18067 0.0116,-0.33514 -0.80584,-3.85231 -1.81663,-7.81588 -3.23739,-12.69466 -10.16531,-32.88901 -15.59644,-45.462431 -1.48428,-3.43628 -2.59594,-6.350568 -2.4703,-6.476159 0.12565,-0.125699 1.02139,0.173537 1.99048,0.664874 3.9167,1.985819 14.57033,28.126156 20.23501,49.650036 4.1524,15.7774 2.42493,-6.86175 -3.11677,-40.84639 -0.826,-5.06569 -1.37165,-9.340649 -1.21249,-9.499758 0.70419,-0.704176 3.94661,13.798638 7.42834,33.225468 l 1.0006,5.58291 0.94231,-5.58291 c 2.19256,-12.99024 7.35727,-34.241291 8.32175,-34.241291 0.31435,0 0.27743,1.088641 -0.082,2.41924 -1.07123,3.964795 -5.06298,27.672691 -6.61123,39.265821 -2.20609,16.5194 -1.33877,17.46605 2.96387,3.235 1.96143,-6.48734 4.61736,-14.30757 5.90209,-17.37811 1.28471,-3.07058 2.78185,-6.78159 3.32686,-8.2467 0.54512,-1.46509 2.70532,-6.20021 4.80051,-10.522421 3.10915,-6.413789 4.15323,-7.924289 5.67937,-8.215993 2.23425,-0.427107 2.13639,0.08561 -1.52715,8.003525 -6.45765,13.956469 -18.46547,48.766169 -17.24372,49.987989 0.17104,0.17093 1.08095,-1.62724 2.02204,-3.99598 6.07552,-15.29248 18.77019,-35.8908 27.69996,-44.945904 2.51608,-2.551352 2.94144,-2.698955 9.15364,-3.176502 3.58318,-0.275423 6.65362,-0.361979 6.82322,-0.192367 0.16956,0.169508 -3.11275,4.948693 -7.29409,10.620233 -4.18129,5.67158 -7.9691,10.81439 -8.41727,11.4285 -0.44822,0.61405 1.62066,-1.14703 4.59748,-3.91355 2.97681,-2.76664 7.16198,-6.15673 9.30044,-7.53358 l 3.88811,-2.50341 8.93246,0.98278 c 4.91288,0.54056 9.26752,1.00379 9.67691,1.0295 0.40944,0.0254 -0.76299,1.41461 -2.6053,3.08641 -6.04863,5.48876 -16.35789,15.81777 -16.07244,16.10319 0.1538,0.15382 1.57197,-0.27605 3.15147,-0.95519 1.57954,-0.67908 5.13856,-2.02045 7.90885,-2.98096 l 5.037,-1.74625 10.44345,3.58092 c 5.74387,1.96947 10.48375,3.87749 10.53302,4.24005 0.0494,0.36258 -1.79742,1.63026 -4.10391,2.81724 -2.30653,1.18692 -4.05506,2.38228 -3.88565,2.65637 0.16938,0.2741 3.50797,1.44335 7.41905,2.59839 3.91111,1.15494 7.11112,2.31068 7.11112,2.56828 0,0.25755 -2.59602,1.43969 -5.76897,2.62693 -3.17289,1.18729 -6.7738,2.67 -8.00204,3.29504 -19.1226,10.75961 -38.00444,20.39106 -53.37859,30.63147 -3.937,2.60774 -14.66521,12.64307 -13.51601,12.64307 0.42801,0 2.08808,-1.32752 3.68911,-2.95004 5.16445,-5.23392 6.37587,-6.35439 6.88126,-6.36451 13.69899,-9.46593 29.66635,-17.92599 41.8831,-23.33117 10.69034,-4.70128 28.43584,-11.27243 30.44156,-11.27243 -7.55935,1.77436 18.49422,18.30945 11.59971,19.16764 -22.57889,2.57034 -62.28842,7.63068 -82.31187,22.49505 -1.02351,0.82537 1.65623,-0.26986 5.955,-2.43404 22.09027,-10.30025 50.02422,-16.45495 75.18203,-16.86695 2.56356,0.0228 5.20673,2.02946 3.81067,2.89223 6.52501,2.94601 2.23982,19.21124 6.53265,20.96062 3.86933,1.54779 0.62531,1.2758 -10.00127,-0.83841 -21.10503,-4.43259 -37.21219,-5.45842 -57.28681,-5.77719 21.97559,1.34582 39.83816,2.02624 60.66672,8.42268 1.84227,0.58002 4.35455,1.15017 5.58279,1.267 0.36957,4.37881 3.84201,3.0966 6.99587,11.64385 -1.10683,0.37974 6.4402,7.34915 9.83236,9.07969 1.93988,0.98969 2.71263,1.8089 2.42151,2.56733 -0.23511,0.61257 -0.81024,1.11903 -1.27824,1.12529 -0.46795,0.008 -0.34836,0.34754 0.26577,0.75854 0.96645,0.64663 0.92231,0.89537 -0.32842,1.84956 -37.24315,12.10499 -72.86966,12.45733 -117.65532,10.17477 -2.04703,-0.43301 -4.96815,-0.98983 -6.49134,-1.23747 -1.52328,-0.24764 -3.82266,-1.33628 -5.10986,-2.4194 -9.10294,-1.62823 -19.78808,-3.51148 -24.95104,0.83258 -4.80978,4.79085 -11.69554,1.3875 -13.42738,4.0276 0.16718,0.28497 -1.04488,25.92512 -1.04488,25.92512 l -8.83189,-11.19604 -8.49949,9.41238 z m 32.85437,-23.94241 0.22848,-2.35534 -4.82183,-0.51648 c -7.90922,-0.49 -9.74037,-1.31188 -10.0107,2.77598 l -0.23247,2.01482 5.81527,0.26695 c 8.99896,0.41277 8.76365,0.4699 9.02125,-2.18593 z m 45.17846,1.60914 c 24.45244,-0.77801 67.66024,-2.57002 72.94895,-3.02567 2.86582,-0.24683 9.06279,-0.42243 13.77095,-0.39029 4.70816,0.0323 14.51792,-0.21581 15.04093,-0.55138 0.52299,-0.33555 -13.21342,-0.63348 -23.76692,-0.66207 -31.86719,-1.70487 -63.84767,-1.63827 -96.31132,0.18271 -2.38857,0.52465 -2.93931,1.57617 -2.06187,3.93697 0.5673,1.5264 0.99922,1.67703 3.8102,1.32867 1.7437,-0.21601 9.19978,-0.58462 16.56908,-0.81894 z m -77.78732,-2.59077 0,-2.22046 -37.777116,0.0867 c -20.777417,0.0472 -54.488314,-0.23597 -55.307129,0.1048 -1.124013,0.46774 15.281994,1.20718 17.530006,1.16458 1.637635,-0.0313 11.351742,0.34569 21.586929,0.83751 16.441399,0.78993 40.18946,1.79335 50.43153,2.13089 3.45394,0.1137 3.53578,0.0651 3.53578,-2.10409 z"
         style="display:inline;fill:#d4aa00;fill-opacity:1" />
      <path
         id="path9437-9"
         d="m 187.85297,94.711543 c -11.5969,7.472937 -22.15766,16.671247 -33.98729,23.563257 -6.60802,-3.11673 -15.15432,2.56743 -14.83694,9.88438 -0.35504,4.22362 2.99489,8.52049 2.79273,12.14261 -2.17883,-0.81492 -4.56959,-0.23867 -6.67109,0.53142 1.75353,-5.11531 1.69041,-10.64047 0.48583,-15.83865 0.15746,-2.28919 -2.64565,-3.14287 -4.02335,-1.46891 -6.4077,5.58374 -12.69562,11.91306 -18.33305,17.91353 -3.01389,-4.60999 -9.7029,-8.16858 -14.765498,-4.63663 -3.917548,2.69217 -6.1109,7.55992 -10.981412,8.88479 -6.386671,3.05951 -13.396522,4.12805 -20.170683,6.01125 6.405982,5.90213 13.159309,11.58651 18.618974,18.37446 -8.655177,9.92103 -10.674426,26.37641 -1.694719,36.75108 7.269459,8.83428 20.906018,13.61569 31.383088,7.71524 1.02182,-1.78878 2.52845,0.79871 4.00161,1.01721 6.7021,3.3853 16.30188,2.4465 20.40484,-4.40458 4.6956,-0.0875 10.04005,-1.67369 14.56762,0.82871 3.88243,1.94784 6.91037,6.85925 11.865,5.63314 5.63765,-0.72052 9.21824,-6.32449 15.04411,-6.56749 3.51976,-0.5762 7.76215,-0.83831 10.87676,0.61427 0.10129,5.31507 6.44221,9.98585 11.28906,6.9632 4.08176,-1.6583 4.66002,-7.406 8.77708,-8.66517 8.14206,0.74491 14.39521,6.94497 19.19385,12.94649 10.57148,-13.25601 21.64776,-26.1468 31.89922,-39.63443 1.73337,-2.25732 -2.62603,0.42976 -3.90656,0.90279 -3.77429,1.993 -8.72462,1.7557 -11.57908,-1.68128 -3.52804,-2.7271 -8.41382,-4.30299 -12.75067,-2.68292 0.16568,-2.33094 -0.47962,-5.2334 0.15848,-7.23561 11.61419,-1.12253 22.27391,-12.50745 19.94696,-24.49655 -1.63189,-6.28629 -9.24476,-9.37454 -15.16121,-7.5578 -2.79103,-4.02918 -7.32236,-8.97205 -12.77136,-7.18696 -5.25498,1.36014 -6.28242,9.05678 -11.99346,9.23795 -2.76642,-0.87118 -5.54997,-2.59145 -8.55223,-1.47612 -1.85106,0.17083 -3.50927,2.01626 -5.18668,1.8843 -2.69026,-1.48574 -5.95873,-0.7824 -8.7522,-0.87845 -2.58684,-2.95984 -2.86634,-8.69375 -7.5516,-9.42652 -3.60482,-0.14361 -5.71804,3.22297 -8.61334,4.72987 -0.0387,-9.51201 3.95551,-18.25525 7.34135,-26.95817 2.13353,-5.89854 4.26705,-11.797127 6.40064,-17.695661 -0.92157,0.654003 -1.84315,1.307953 -2.76478,1.961954 z"
         style="font-style:normal;font-weight:normal;font-size:180px;line-height:125%;font-family:sans-serif;letter-spacing:9.68000031px;word-spacing:0px;display:inline;fill:#501616;fill-opacity:1;stroke:none;stroke-width:1px;stroke-linecap:butt;stroke-linejoin:miter;stroke-opacity:1"
         inkscape:connector-curvature="0" />
      <text
         sodipodi:linespacing="125%"
         id="text4159-2"
         y="201.29628"
         x="86.795853"
         style="font-style:normal;font-weight:normal;font-size:95.46694946px;line-height:125%;font-family:sans-serif;letter-spacing:5.1340003px;word-spacing:0px;display:inline;fill:#ffffff;fill-opacity:1;stroke:none;stroke-width:1px;stroke-linecap:butt;stroke-linejoin:miter;stroke-opacity:1"
         xml:space="preserve"><tspan
           style="font-style:normal;font-variant:normal;font-weight:500;font-stretch:normal;font-size:132.59298706px;font-family:'English Towne';-inkscape-font-specification:'English Towne Medium';fill:#ffffff;fill-opacity:1"
           y="201.29628"
           x="86.795853"
           id="tspan4161-5"
           sodipodi:role="line">abc</tspan></text>
    </g>
  </g>
  <g
     inkscape:groupmode="layer"
     id="layer3"
     inkscape:label="Layer 3"
     style="display:inline" />
</svg>
